<svg width="24" height="24" viewBox="0 0 24 24" fill="none" xmlns="http://www.w3.org/2000/svg">
<path fill-rule="evenodd" clip-rule="evenodd" d="M10.5 16L10.5 8H12.5L12.5 16H10.5Z" fill="black"/>
<path d="M6 7.5C6 4.46243 8.46243 2 11.5 2C14.5376 2 17 4.46243 17 7.5V11H15V7.5C15 5.567 13.433 4 11.5 4C9.567 4 8 5.567 8 7.5V11H6V7.5Z" fill="black"/>
<path d="M6 13V16.5C6 19.5376 8.46243 22 11.5 22C14.5376 22 17 19.5376 17 16.5V13H15V16.5C15 18.433 13.433 20 11.5 20C9.567 20 8 18.433 8 16.5V13H6Z" fill="black"/>
</svg>
